<svg width="24" height="24" viewBox="0 0 24 24" fill="none" xmlns="http://www.w3.org/2000/svg">
<g clip-path="url(#clip0_2103_6237)">
<path d="M5 9C5.26522 9 5.51957 9.10536 5.70711 9.29289C5.89464 9.48043 6 9.73478 6 10C7.57114 9.99769 9.09698 10.5263 10.33 11.5H12.5C13.833 11.5 15.03 12.08 15.854 13H19C19.9453 12.9997 20.8712 13.2674 21.6705 13.772C22.4698 14.2767 23.1097 14.9975 23.516 15.851C21.151 18.972 17.322 21 13 21C10.21 21 7.85 20.397 5.94 19.342C5.87004 19.5351 5.74224 19.7018 5.57402 19.8196C5.40579 19.9374 5.20534 20.0003 5 20H2C1.73478 20 1.48043 19.8946 1.29289 19.7071C1.10536 19.5196 1 19.2652 1 19V10C1 9.73478 1.10536 9.48043 1.29289 9.29289C1.48043 9.10536 1.73478 9 2 9H5ZM6.001 12L6 17.022L6.045 17.054C7.84 18.314 10.178 19 13 19C16.004 19 18.799 17.844 20.835 15.87L20.968 15.737L20.848 15.637C20.3758 15.2672 19.8034 15.0477 19.205 15.007L19 15H16.889C16.961 15.322 17 15.656 17 16V17H8V15L14.79 14.999L14.756 14.921C14.5644 14.5205 14.2696 14.1783 13.9019 13.9295C13.5343 13.6806 13.107 13.5341 12.664 13.505L12.5 13.5H9.57C9.10531 13.0247 8.55027 12.6472 7.93752 12.3896C7.32477 12.132 6.66669 11.9995 6.002 12H6.001ZM4 11H3V18H4V11ZM18 5C18.7956 5 19.5587 5.31607 20.1213 5.87868C20.6839 6.44129 21 7.20435 21 8C21 8.79565 20.6839 9.55871 20.1213 10.1213C19.5587 10.6839 18.7956 11 18 11C17.2044 11 16.4413 10.6839 15.8787 10.1213C15.3161 9.55871 15 8.79565 15 8C15 7.20435 15.3161 6.44129 15.8787 5.87868C16.4413 5.31607 17.2044 5 18 5ZM18 7C17.7348 7 17.4804 7.10536 17.2929 7.29289C17.1054 7.48043 17 7.73478 17 8C17 8.26522 17.1054 8.51957 17.2929 8.70711C17.4804 8.89464 17.7348 9 18 9C18.2652 9 18.5196 8.89464 18.7071 8.70711C18.8946 8.51957 19 8.26522 19 8C19 7.73478 18.8946 7.48043 18.7071 7.29289C18.5196 7.10536 18.2652 7 18 7ZM11 2C11.7956 2 12.5587 2.31607 13.1213 2.87868C13.6839 3.44129 14 4.20435 14 5C14 5.79565 13.6839 6.55871 13.1213 7.12132C12.5587 7.68393 11.7956 8 11 8C10.2044 8 9.44129 7.68393 8.87868 7.12132C8.31607 6.55871 8 5.79565 8 5C8 4.20435 8.31607 3.44129 8.87868 2.87868C9.44129 2.31607 10.2044 2 11 2ZM11 4C10.7348 4 10.4804 4.10536 10.2929 4.29289C10.1054 4.48043 10 4.73478 10 5C10 5.26522 10.1054 5.51957 10.2929 5.70711C10.4804 5.89464 10.7348 6 11 6C11.2652 6 11.5196 5.89464 11.7071 5.70711C11.8946 5.51957 12 5.26522 12 5C12 4.73478 11.8946 4.48043 11.7071 4.29289C11.5196 4.10536 11.2652 4 11 4Z" fill="white"/>
</g>
<defs>
<clipPath id="clip0_2103_6237">
<rect width="24" height="24" fill="white"/>
</clipPath>
</defs>
</svg>
