<svg width="1721" height="392" viewBox="0 0 1721 392" fill="none" xmlns="http://www.w3.org/2000/svg">
<path d="M139.3 100.8C139.3 71.6394 162.955 48 192.136 48C221.318 48 244.973 71.6394 244.973 100.8V139.2C244.973 147.153 238.521 153.6 230.563 153.6C222.605 153.6 216.153 147.153 216.153 139.2V100.8C216.153 87.5448 205.401 76.8 192.136 76.8C178.872 76.8 168.12 87.5448 168.12 100.8V165.734C168.12 167.552 169.148 169.214 170.775 170.027L226.61 197.925C237.864 203.548 244.973 215.043 244.973 227.617V283.2C244.973 312.361 221.318 336 192.136 336C162.955 336 139.3 312.361 139.3 283.2V244.8C139.3 236.847 145.751 230.4 153.71 230.4C161.668 230.4 168.12 236.847 168.12 244.8V283.2C168.12 296.455 178.872 307.2 192.136 307.2C205.401 307.2 216.153 296.455 216.153 283.2V227.617C216.153 225.952 215.212 224.43 213.721 223.685L157.886 195.786C146.495 190.095 139.3 178.461 139.3 165.734V100.8Z" fill="url(#paint0_linear_89_1991)"/>
<path d="M288.194 96C296.152 96 302.604 102.447 302.604 110.4V244.8C302.604 252.753 296.152 259.2 288.194 259.2C280.236 259.2 273.784 252.753 273.784 244.8V110.4C273.784 102.447 280.236 96 288.194 96Z" fill="url(#paint1_linear_89_1991)"/>
<path d="M110.47 139.197C110.47 131.244 104.019 124.797 96.0604 124.797C88.1021 124.797 81.6504 131.244 81.6504 139.197V273.597C81.6504 281.55 88.1021 287.997 96.0604 287.997C104.019 287.997 110.47 281.55 110.47 273.597V139.197Z" fill="url(#paint2_linear_89_1991)"/>
<path d="M345.844 134.406C353.802 134.406 360.254 140.853 360.254 148.806V206.406C360.254 214.359 353.802 220.806 345.844 220.806C337.885 220.806 331.434 214.359 331.434 206.406V148.806C331.434 140.853 337.885 134.406 345.844 134.406Z" fill="url(#paint3_linear_89_1991)"/>
<path d="M52.8366 187.197C52.8366 179.244 46.385 172.797 38.4266 172.797C30.4682 172.797 24.0166 179.244 24.0166 187.197V244.797C24.0166 252.75 30.4682 259.197 38.4266 259.197C46.385 259.197 52.8366 252.75 52.8366 244.797V187.197Z" fill="url(#paint4_linear_89_1991)"/>
<path d="M592.205 298.707C577.367 298.707 562.76 295.927 548.385 290.366C534.011 284.712 522.001 277.206 512.355 267.845L530.023 241.989C537.905 249.866 547.365 256.215 558.401 261.034C569.53 265.76 580.798 268.123 592.205 268.123C603.612 268.123 613.211 265.667 621.001 260.755C628.791 255.843 632.686 249.495 632.686 241.711C632.686 238.652 632.037 235.826 630.739 233.231C629.441 230.543 627.493 228.227 624.896 226.28C622.3 224.334 619.703 222.666 617.106 221.275C614.51 219.793 611.124 218.449 606.951 217.244C602.87 215.947 599.486 214.974 596.796 214.325C594.199 213.583 590.768 212.749 586.501 211.823C577.042 209.599 568.463 206.911 560.766 203.759C553.068 200.516 545.974 196.531 539.482 191.804C532.991 187.078 527.936 181.332 524.319 174.567C520.702 167.709 518.894 160.109 518.894 151.768C518.894 134.901 525.664 121.278 539.204 110.898C552.744 100.519 570.318 95.3281 591.927 95.3281C605.745 95.3281 618.451 97.5529 630.044 102.001C641.636 106.45 651.141 112.381 658.561 119.795L642.563 145.513C636.999 139.767 629.534 135.04 620.166 131.333C610.893 127.627 601.294 125.773 591.37 125.773C580.427 125.773 571.431 128.09 564.383 132.723C557.428 137.357 553.95 143.335 553.95 150.656C553.95 164.095 568 173.64 596.1 179.293C599.624 180.035 602.917 180.823 605.977 181.656C609.038 182.491 613.118 183.788 618.219 185.549C623.32 187.31 627.91 189.21 631.99 191.248C636.072 193.287 640.383 195.975 644.928 199.311C649.565 202.555 653.414 206.077 656.475 209.876C659.627 213.583 662.224 218.079 664.265 223.361C666.305 228.643 667.325 234.296 667.325 240.32C667.325 257.466 660.184 271.506 645.902 282.442C631.62 293.285 613.721 298.707 592.205 298.707Z" fill="white"/>
<path d="M723.157 125.502C717.407 125.502 712.585 123.555 708.689 119.663C704.794 115.771 702.847 110.998 702.847 105.345C702.847 99.5059 704.794 94.6875 708.689 90.8875C712.585 87.0875 717.407 85.1875 723.157 85.1875C728.999 85.1875 733.868 87.0875 737.764 90.8875C741.658 94.6875 743.606 99.5059 743.606 105.345C743.606 111.091 741.658 115.91 737.764 119.803C733.868 123.602 728.999 125.502 723.157 125.502ZM707.159 295.239V150.107H739.154V295.239H707.159Z" fill="white"/>
<path d="M910.606 190.979C920.621 194.13 928.787 200.432 935.095 209.884C941.395 219.337 944.549 230.042 944.549 241.997C944.549 257.381 939.314 270.124 928.835 280.226C918.443 290.235 905.37 295.24 889.599 295.24H793.895V98.8125H883.067C897.621 98.8125 909.773 103.539 919.508 112.992C929.339 122.352 934.254 134.122 934.254 148.301C934.254 157.661 932.029 166.234 927.578 174.019C923.223 181.711 917.563 187.364 910.606 190.979ZM874.717 129.257H826.588V179.301H874.717C881.578 179.301 887.422 176.892 892.249 172.072C897.069 167.253 899.478 161.322 899.478 154.279C899.478 147.143 897.117 141.212 892.385 136.485C887.654 131.666 881.762 129.257 874.717 129.257ZM881.538 264.796C889.511 264.796 896.14 262.061 901.424 256.593C906.803 251.125 909.493 244.361 909.493 236.297C909.493 228.327 906.803 221.655 901.424 216.28C896.14 210.812 889.511 208.077 881.538 208.077H826.588V264.796H881.538Z" fill="white"/>
<path d="M1055.05 298.707C1032.89 298.707 1014.39 291.431 999.544 276.881C984.701 262.331 977.288 244.259 977.288 222.666C977.288 201.072 984.701 183 999.544 168.45C1014.39 153.9 1032.89 146.625 1055.05 146.625C1069.52 146.625 1082.69 149.961 1094.55 156.634C1106.52 163.214 1115.89 172.343 1122.65 184.019C1129.43 195.604 1132.81 208.487 1132.81 222.666C1132.81 236.845 1129.43 249.774 1122.65 261.451C1115.89 273.035 1106.52 282.164 1094.55 288.836C1082.69 295.416 1069.52 298.707 1055.05 298.707ZM1022.91 254.917C1031.54 263.536 1042.25 267.845 1055.05 267.845C1067.85 267.845 1078.46 263.536 1086.91 254.917C1095.43 246.206 1099.7 235.455 1099.7 222.666C1099.7 209.783 1095.43 199.033 1086.91 190.415C1078.46 181.703 1067.85 177.347 1055.05 177.347C1042.25 177.347 1031.54 181.703 1022.91 190.415C1014.29 199.126 1009.97 209.876 1009.97 222.666C1009.97 235.455 1014.29 246.206 1022.91 254.917Z" fill="white"/>
<path d="M1253.07 147.75H1258.5V180.557H1253.07C1238.98 180.557 1227.89 184.543 1219.82 192.512C1211.85 200.39 1207.86 211.094 1207.86 224.625V295.244H1175.86V150.113H1207.86V171.382C1219.45 155.628 1234.53 147.75 1253.07 147.75Z" fill="white"/>
<path d="M1385.98 296.623C1400.08 296.623 1411.81 300.284 1421.18 307.605C1430.54 315.02 1436.29 325.121 1438.42 337.91L1405.32 346.808C1404.94 340.968 1402.44 336.288 1397.8 332.767C1393.17 329.338 1387.23 327.624 1380 327.624H1330.06C1317.17 327.624 1306.73 324.194 1298.76 317.336C1290.78 310.571 1286.8 301.674 1286.8 290.645C1286.8 283.416 1288.51 276.652 1291.94 270.349C1295.37 263.955 1300.01 259.043 1305.85 255.614C1292.78 243.473 1286.24 228.32 1286.24 210.156C1286.24 192.084 1292.68 176.978 1305.57 164.837C1318.47 152.697 1334.51 146.627 1353.71 146.627C1365.58 146.627 1376.61 149.176 1386.82 154.272C1388.67 146.488 1392.75 140.371 1399.06 135.923C1405.45 131.474 1413.24 129.25 1422.43 129.25H1434.11V158.86H1424.1C1419.64 158.86 1415.89 160.018 1412.83 162.336C1409.86 164.56 1408.19 167.572 1407.82 171.371C1416.81 182.585 1421.31 195.513 1421.31 210.156C1421.31 228.136 1414.82 243.196 1401.84 255.336C1388.85 267.476 1372.81 273.547 1353.71 273.547C1343.78 273.547 1334.79 271.972 1326.72 268.82C1321.52 272.249 1318.93 276.883 1318.93 282.722C1318.93 286.8 1320.51 290.136 1323.65 292.731C1326.81 295.326 1330.94 296.623 1336.04 296.623H1385.98ZM1353.71 176.792C1343.78 176.792 1335.48 179.99 1328.8 186.384C1322.22 192.687 1318.93 200.611 1318.93 210.156C1318.93 219.609 1322.22 227.533 1328.8 233.928C1335.48 240.23 1343.78 243.38 1353.71 243.38C1363.54 243.38 1371.74 240.184 1378.33 233.788C1384.91 227.394 1388.2 219.516 1388.2 210.156C1388.2 200.611 1384.91 192.687 1378.33 186.384C1371.74 179.99 1363.54 176.792 1353.71 176.792Z" fill="white"/>
<rect x="1459.5" y="240.5" width="261" height="151" rx="75.5" stroke="white"/>
<path d="M1513.82 351H1504.95L1530.59 281.182H1539.32L1564.95 351H1556.09L1535.23 292.227H1534.68L1513.82 351ZM1517.09 323.727H1552.82V331.227H1517.09V323.727ZM1594.51 352.091C1590.15 352.091 1586.3 350.989 1582.95 348.784C1579.61 346.557 1577 343.42 1575.11 339.375C1573.23 335.307 1572.28 330.5 1572.28 324.955C1572.28 319.455 1573.23 314.682 1575.11 310.636C1577 306.591 1579.63 303.466 1582.99 301.261C1586.35 299.057 1590.24 297.955 1594.65 297.955C1598.06 297.955 1600.75 298.523 1602.73 299.659C1604.73 300.773 1606.25 302.045 1607.3 303.477C1608.36 304.886 1609.19 306.045 1609.78 306.955H1610.47V281.182H1618.51V351H1610.74V342.955H1609.78C1609.19 343.909 1608.35 345.114 1607.26 346.568C1606.17 348 1604.61 349.284 1602.59 350.42C1600.57 351.534 1597.88 352.091 1594.51 352.091ZM1595.6 344.864C1598.83 344.864 1601.56 344.023 1603.78 342.341C1606.01 340.636 1607.7 338.284 1608.86 335.284C1610.02 332.261 1610.6 328.773 1610.6 324.818C1610.6 320.909 1610.03 317.489 1608.9 314.557C1607.76 311.602 1606.08 309.307 1603.85 307.67C1601.63 306.011 1598.88 305.182 1595.6 305.182C1592.19 305.182 1589.35 306.057 1587.08 307.807C1584.83 309.534 1583.14 311.886 1582 314.864C1580.89 317.818 1580.33 321.136 1580.33 324.818C1580.33 328.545 1580.9 331.932 1582.03 334.977C1583.19 338 1584.9 340.409 1587.15 342.205C1589.42 343.977 1592.24 344.864 1595.6 344.864ZM1671.45 310.364L1664.23 312.409C1663.77 311.205 1663.1 310.034 1662.22 308.898C1661.35 307.739 1660.17 306.784 1658.67 306.034C1657.17 305.284 1655.25 304.909 1652.91 304.909C1649.7 304.909 1647.03 305.648 1644.9 307.125C1642.78 308.58 1641.73 310.432 1641.73 312.682C1641.73 314.682 1642.45 316.261 1643.91 317.42C1645.36 318.58 1647.64 319.545 1650.73 320.318L1658.5 322.227C1663.18 323.364 1666.67 325.102 1668.97 327.443C1671.26 329.761 1672.41 332.75 1672.41 336.409C1672.41 339.409 1671.55 342.091 1669.82 344.455C1668.11 346.818 1665.73 348.682 1662.66 350.045C1659.59 351.409 1656.02 352.091 1651.95 352.091C1646.61 352.091 1642.19 350.932 1638.69 348.614C1635.19 346.295 1632.98 342.909 1632.05 338.455L1639.68 336.545C1640.41 339.364 1641.78 341.477 1643.81 342.886C1645.85 344.295 1648.52 345 1651.82 345C1655.57 345 1658.55 344.205 1660.75 342.614C1662.98 341 1664.09 339.068 1664.09 336.818C1664.09 335 1663.45 333.477 1662.18 332.25C1660.91 331 1658.95 330.068 1656.32 329.455L1647.59 327.409C1642.8 326.273 1639.27 324.511 1637.02 322.125C1634.8 319.716 1633.68 316.705 1633.68 313.091C1633.68 310.136 1634.51 307.523 1636.17 305.25C1637.85 302.977 1640.14 301.193 1643.02 299.898C1645.93 298.602 1649.23 297.955 1652.91 297.955C1658.09 297.955 1662.16 299.091 1665.11 301.364C1668.09 303.636 1670.2 306.636 1671.45 310.364Z" fill="white"/>
<defs>
<linearGradient id="paint0_linear_89_1991" x1="192.136" y1="48" x2="192.136" y2="464.269" gradientUnits="userSpaceOnUse">
<stop stop-color="#DE87CA"/>
<stop offset="1" stop-color="#5743C8"/>
</linearGradient>
<linearGradient id="paint1_linear_89_1991" x1="288.194" y1="96" x2="288.194" y2="331.886" gradientUnits="userSpaceOnUse">
<stop stop-color="#DE87CA"/>
<stop offset="1" stop-color="#5743C8"/>
</linearGradient>
<linearGradient id="paint2_linear_89_1991" x1="96.0604" y1="124.797" x2="96.0604" y2="360.683" gradientUnits="userSpaceOnUse">
<stop stop-color="#DE87CA"/>
<stop offset="1" stop-color="#5743C8"/>
</linearGradient>
<linearGradient id="paint3_linear_89_1991" x1="345.844" y1="134.406" x2="345.844" y2="220.806" gradientUnits="userSpaceOnUse">
<stop stop-color="#DE87CA"/>
<stop offset="1" stop-color="#5743C8"/>
</linearGradient>
<linearGradient id="paint4_linear_89_1991" x1="38.4266" y1="172.797" x2="38.4266" y2="297.678" gradientUnits="userSpaceOnUse">
<stop stop-color="#DE87CA"/>
<stop offset="1" stop-color="#5743C8"/>
</linearGradient>
</defs>
</svg>
