<svg width="22" height="22" viewBox="0 0 22 22" fill="none" xmlns="http://www.w3.org/2000/svg">
<path d="M18.3741 14.103C19.0229 12.5613 19.1723 10.855 18.8011 9.22402C18.43 7.59303 17.557 6.11938 16.305 5.01024C15.0529 3.9011 13.4847 3.21225 11.8209 3.04055C10.1571 2.86884 8.48124 3.22292 7.02906 4.05299L6.03706 2.31599C7.5547 1.4486 9.27325 0.994353 11.0213 0.998564C12.7693 1.00278 14.4856 1.4653 15.9991 2.33999C20.4891 4.93199 22.2091 10.482 20.1161 15.11L21.4581 15.884L17.2931 18.098L17.1281 13.384L18.3741 14.103ZM3.62406 7.89699C2.97521 9.43868 2.82585 11.145 3.19698 12.776C3.56811 14.4069 4.44108 15.8806 5.69314 16.9897C6.9452 18.0989 8.51338 18.7877 10.1772 18.9594C11.8411 19.1311 13.5169 18.7771 14.9691 17.947L15.9611 19.684C14.4434 20.5514 12.7249 21.0056 10.9769 21.0014C9.22885 20.9972 7.5125 20.5347 5.99906 19.66C1.50906 17.068 -0.210938 11.518 1.88206 6.88999L0.539062 6.11699L4.70406 3.90299L4.86906 8.61699L3.62306 7.89799L3.62406 7.89699ZM12.4141 13.828L9.58306 11L6.75506 13.828L5.34106 12.414L9.58406 8.17199L12.4131 11L15.2421 8.17199L16.6561 9.58599L12.4131 13.828H12.4141Z" fill="white"/>
</svg>
