<svg width="48" height="48" viewBox="0 0 48 48" fill="none" xmlns="http://www.w3.org/2000/svg">
<g clip-path="url(#clip0_2105_6114)">
<path d="M21.5146 23.656L37.2126 7.95801L40.0406 10.786L37.2126 13.616L42.1606 18.564L39.3326 21.394L34.3826 16.444L31.5546 19.272L35.7966 23.514L32.9686 26.344L28.7266 22.1L24.3426 26.484C25.7035 28.552 26.2493 31.0512 25.8744 33.4982C25.4996 35.9453 24.2307 38.1665 22.3132 39.7323C20.3956 41.2981 17.9656 42.0972 15.493 41.9753C13.0203 41.8533 10.6808 40.8189 8.92661 39.072C7.16867 37.3207 6.12467 34.9783 5.99752 32.5001C5.87037 30.0219 6.66916 27.5849 8.23864 25.6628C9.80811 23.7408 12.0362 22.4709 14.4897 22.1C16.9433 21.7291 19.4472 22.2837 21.5146 23.656ZM20.2406 36.242C20.8232 35.6909 21.2895 35.0286 21.6118 34.2942C21.9341 33.5599 22.1059 32.7684 22.117 31.9665C22.1282 31.1646 21.9784 30.3686 21.6767 29.6255C21.375 28.8825 20.9273 28.2075 20.3602 27.6404C19.7932 27.0733 19.1181 26.6257 18.3751 26.3239C17.6321 26.0222 16.8361 25.8725 16.0342 25.8836C15.2323 25.8948 14.4407 26.0666 13.7064 26.3888C12.972 26.7111 12.3097 27.1774 11.7586 27.76C10.6657 28.8916 10.0609 30.4072 10.0746 31.9804C10.0882 33.5536 10.7193 35.0585 11.8317 36.1709C12.9442 37.2834 14.449 37.9144 16.0222 37.9281C17.5954 37.9417 19.111 37.337 20.2426 36.244L20.2406 36.242Z" fill="#8358FF"/>
</g>
<defs>
<clipPath id="clip0_2105_6114">
<rect width="48" height="48" fill="white"/>
</clipPath>
</defs>
</svg>
