<svg width="48" height="48" viewBox="0 0 48 48" fill="none" xmlns="http://www.w3.org/2000/svg">
<path d="M24 2.00002C28.7739 2.00002 33.3523 3.89644 36.7279 7.2721C40.1036 10.6478 42 15.2261 42 20V28C42.0009 30.8967 41.3027 33.7508 39.9648 36.3199C38.6268 38.889 36.6885 41.0973 34.3146 42.7572C31.9407 44.4171 29.2013 45.4795 26.329 45.8543C23.4567 46.2291 20.5364 45.9052 17.816 44.91C18.072 44.556 18.318 44.196 18.554 43.826L18.894 43.266C20.8334 40.0303 21.9014 36.3473 21.994 32.576L22 32V18H26V32C26.0043 35.4332 25.3265 38.833 24.006 42.002C25.5506 42.0013 27.0845 41.7458 28.546 41.246C29.43 38.524 29.932 35.63 29.994 32.626L30 32V25.998H34V32C34 34.176 33.796 36.306 33.404 38.37C34.7931 37.114 35.9151 35.5912 36.7033 33.8925C37.4916 32.1937 37.9298 30.3537 37.992 28.482L38 28V20C38 17.4017 37.277 14.8547 35.9118 12.644C34.5466 10.4333 32.5931 8.64614 30.27 7.4825C27.9468 6.31886 25.3457 5.82467 22.7577 6.05523C20.1697 6.2858 17.6969 7.23203 15.616 8.78802L12.766 5.93602C15.953 3.38258 19.9163 1.99396 24 2.00002ZM14 20C14 17.3479 15.0536 14.8043 16.929 12.929C18.8043 11.0536 21.3479 10 24 10C26.6522 10 29.1957 11.0536 31.0711 12.929C32.9465 14.8043 34 17.3479 34 20V22H30V20C30.0015 18.4382 29.394 16.9374 28.3065 15.8164C27.219 14.6954 25.7372 14.0427 24.1761 13.9968C22.615 13.951 21.0975 14.5157 19.9461 15.5709C18.7947 16.6262 18.1001 18.0888 18.01 19.648L18 20V32C18 35.134 17.2 38.08 15.792 40.646L15.744 40.726C15.284 41.554 14.762 42.342 14.18 43.084C13.3005 42.5105 12.4727 41.8614 11.706 41.144L11.088 40.544C7.81906 37.1875 5.99292 32.6853 6.00002 28V20C6.00002 15.75 7.47202 11.844 9.93602 8.76602L12.788 11.616C11.0727 13.9025 10.1021 16.6612 10.008 19.518L10 20V28C10 31.35 11.176 34.424 13.14 36.834C13.6564 35.4387 13.9441 33.9691 13.992 32.482L14 32V20Z" fill="#8358FF"/>
</svg>
