<svg width="48" height="48" viewBox="0 0 48 48" fill="none" xmlns="http://www.w3.org/2000/svg">
<g clip-path="url(#clip0_2105_6149)">
<path d="M39.1249 24.194L42.1869 29.5C44.1209 32.848 42.9729 37.13 39.6269 39.062C38.5609 39.676 37.3549 40 36.1269 40H32.0009V45L22.0009 38L32.0009 31V36H36.1249C36.6509 36 37.1689 35.86 37.6249 35.598C39.0609 34.77 39.5509 32.934 38.7249 31.5L35.6609 26.194L39.1249 24.194ZM14.6089 18.268L15.6689 30.428L11.3409 27.928L9.27887 31.5C9.01487 31.956 8.87688 32.474 8.87688 33C8.87688 34.656 10.2189 36 11.8769 36H18.0009V40H11.8769C8.01087 40 4.87687 36.866 4.87687 33C4.87687 31.772 5.20088 30.564 5.81488 29.5L7.87488 25.926L3.54688 23.428L14.6069 18.268H14.6089ZM27.5009 5.93801C28.5649 6.55201 29.4489 7.43601 30.0629 8.50001L32.1229 12.07L36.4549 9.57001L35.3949 21.732L24.3309 16.572L28.6609 14.072L26.5989 10.5C26.3349 10.044 25.9569 9.66601 25.5009 9.40201C24.0669 8.57401 22.2309 9.06601 21.4029 10.5L18.3389 15.806L14.8749 13.806L17.9409 8.50001C19.8729 5.15201 24.1549 4.00401 27.5029 5.93801H27.5009Z" fill="#8358FF"/>
</g>
<defs>
<clipPath id="clip0_2105_6149">
<rect width="48" height="48" fill="white"/>
</clipPath>
</defs>
</svg>
